<?xml version="1.0" encoding="utf-8" ?><svg xmlns="http://www.w3.org/2000/svg" xmlns:xlink="http://www.w3.org/1999/xlink" width="1024" height="1024" viewBox="0 0 1024 1024"><path fill="#130F10" transform="scale(0.5 0.5)" d="M1358.01 907.177C1366.74 886.141 1402.74 765.518 1412.84 758.354C1416.09 756.043 1420.14 755.458 1424.03 755.926C1429.56 756.588 1435.79 760.067 1438.96 764.694C1440.66 767.167 1441.36 770.122 1441.09 773.098C1440.07 784.321 1434.84 796.962 1431.27 807.652C1423.89 829.189 1416.35 850.673 1408.66 872.104C1404.17 884.83 1397.99 901.387 1395.18 914.433L1394.93 915.658C1419.91 926.268 1444.31 943.18 1445.61 973.71C1446.7 997.82 1422.13 1016.36 1403.4 1027.94C1350.45 1060.71 1356.47 1098.92 1341.59 1152.15C1332.15 1186.32 1313.98 1217.45 1288.86 1242.47C1263.41 1268.37 1231.43 1286.93 1196.32 1296.19C1161.28 1305.08 1095.64 1302.28 1056.59 1302.62L841.608 1303.95L695.04 1304.87C668.898 1305.14 642.262 1306.03 616.331 1304.17C601.112 1303.08 599.838 1279.37 609.608 1272.84C619.352 1266.34 632.358 1259.66 642.704 1254.13C666.341 1241.75 690.087 1229.57 713.939 1217.6C727.968 1210.47 744.473 1202.49 757.608 1194.15C772.036 1209.16 786.788 1223.86 801.854 1238.23C809.722 1245.6 818.72 1252.81 826.15 1260.4C840.673 1263.03 851.154 1272.81 865.099 1276.54C877.789 1279.93 984.68 1277.38 1002.16 1275.12C1009.13 1274.22 1015.53 1272.71 1021.7 1269.23C1034.72 1261.88 1040.91 1252.75 1044.75 1238.58C1075.66 1234.73 1099.6 1206.91 1123.05 1188.06C1140.81 1173.79 1159.74 1158.26 1174.89 1141.32C1185.45 1129.5 1188.23 1119.19 1186.71 1103.53C1206.31 1086 1208.3 1066.78 1216.07 1042.69C1234.33 986.059 1257.77 952.103 1307.07 919.73C1303.39 906.822 1296.14 888.612 1291.46 875.607C1283.67 853.616 1276.01 831.58 1268.48 809.501C1264.62 798.281 1258.16 781.506 1255.84 770.459C1259.69 762.028 1262.42 760.061 1270.61 756.175C1278.67 755.407 1285.25 756.192 1289.28 764.214C1296.16 777.922 1300.87 793.119 1306.02 807.598L1325.36 860.624C1330.92 876.18 1336.53 893.196 1343.07 908.237C1348.49 908.182 1352.67 907.736 1358.01 907.177Z"/><path fill="#130F10" transform="scale(0.5 0.5)" d="M727.104 884.85L730.589 885.852C731.104 890.822 720.725 900.608 718.077 907.013C711.392 930.039 713.542 945.505 713.639 969.213C713.746 995.42 714.445 1022.29 713.544 1048.49C713.146 1060.06 707.229 1073.46 704.495 1084.81C702.992 1091.05 702.568 1097.26 702.018 1103.67C692.611 1098.67 679.701 1086.61 678.384 1075.8C673.078 1032.21 675.032 983.009 675.828 939.36C676.388 908.651 700.453 891.944 727.104 884.85Z"/><path fill="#130F10" transform="scale(0.5 0.5)" d="M835.593 1218.55L836.451 1218.89C878.334 1234.95 942.441 1220.44 987.402 1224.26C996.14 1225 1028.35 1231.36 1032.85 1237.44C1031.75 1242.87 1024.58 1249.41 1020.57 1253.56C1007.77 1263.56 995.884 1264.26 980.45 1264.7C952.628 1265.48 924.878 1265.47 897.047 1266.53C876.488 1267.31 853.966 1265.35 840.827 1247.02C835.637 1239.69 833.719 1227.23 835.593 1218.55Z"/><path fill="#130F10" transform="scale(0.5 0.5)" d="M1173.37 887.995C1188.64 901.501 1195.46 916.212 1195.5 936.807C1195.58 981.198 1199.18 1027.61 1192.93 1071.53C1190.99 1085.11 1170.86 1100.83 1158.32 1105.08C1153.35 1106.15 1148.82 1106.69 1143.8 1107.35C1161.89 1084.76 1159.46 1061.67 1159.42 1034.02C1159.38 1011.61 1158.58 988.888 1158.05 966.461C1158.96 931.843 1162.28 920.144 1173.37 887.995Z"/><path fill="#130F10" transform="scale(0.5 0.5)" d="M846.837 767.227L845.342 764.979C848.001 755.796 868.928 746.811 878.352 746.508C919.849 745.171 961.492 745.601 1003.02 744.594C1020.22 744.177 1037.35 751.174 1048.77 764.112C1030.97 768.814 1016.24 775.697 999.003 780.817C988.077 784.063 968.695 784.485 956.562 785.066C941.974 785.307 904.034 786.061 890.974 782.228C878.718 778.631 861.48 771.302 846.837 767.227Z"/><path fill="#130F10" transform="scale(0.5 0.5)" d="M799.056 964.46C810.246 956.623 820.665 949.152 830.929 939.996C838.797 932.978 848.174 921.254 856.346 915.511C850.629 936.207 846.351 944.102 835.177 961.89C829.97 966.698 830.629 969.042 823.724 973.244C822.448 988.4 822.532 1006.68 822.961 1021.96C846.281 1035.27 848.708 1052.73 853.624 1076.71C853.747 1082.23 854.567 1084.36 856.103 1089.53C840.992 1085.28 831.767 1083.95 817.889 1080.65C821.626 1064.01 824.278 1053.31 823.279 1036.36C816.142 1053.58 806.815 1078.6 800.527 1096.06C796.607 1091.06 791.491 1084.52 790.575 1078.18C785.91 1045.9 787.966 1000.54 788.312 968.067C791.914 966.926 795.495 965.723 799.056 964.46Z"/><path fill="#130F10" transform="scale(0.5 0.5)" d="M1065.28 908.229C1076.03 917.828 1088.62 926.075 1088.35 941.817C1087.65 982.578 1092.12 1024.86 1087.43 1065.18C1086.32 1074.95 1042.37 1115.92 1037.95 1115.16C1038.51 1103.19 1038.94 1092.12 1038.96 1080.12C1047.21 1071.42 1050 1066.04 1056.51 1056.01C1057.73 1055.39 1067.82 1047.84 1068.7 1046.55L1067.62 1046.09C1062.24 1047.68 1060.08 1049.6 1055.62 1052.82L1055.51 1035.87C1055.73 1020.66 1055.05 999.645 1056.14 985.296C1056.29 968.407 1054.63 948.858 1055.59 932.882C1058.57 924.584 1061.38 916.125 1065.28 908.229Z"/><path fill="#130F10" transform="scale(0.5 0.5)" d="M707.511 1110.54C723.04 1115.53 730.044 1114.47 744.567 1107.47C758.09 1120.99 821.333 1178.98 824.193 1192.56C827.649 1208.96 824.351 1227.43 828.428 1247.33C794.433 1213.14 760.053 1179.41 726.56 1144.73C713.746 1131.47 710.262 1128.82 707.511 1110.54Z"/><path fill="#130F10" transform="scale(0.5 0.5)" d="M1125.39 1118.17C1136.68 1119.34 1139.19 1119.87 1150.47 1118.55C1157.58 1117.72 1169.88 1111.87 1173.67 1112.78C1174.68 1117.29 1173.21 1120.91 1170.86 1124.74C1160.12 1142.32 1085.81 1204.37 1064.95 1217.67C1060.85 1220.29 1056.48 1222.53 1051.69 1223.57C1048.85 1224.19 1045.87 1224.23 1042.97 1224.29C1041.58 1219.97 1044.39 1208.47 1044.06 1202.47C1043.78 1197.44 1043.51 1194.42 1042.8 1189.29C1046.01 1186.12 1048.17 1183.6 1051.08 1180.14C1070.76 1164.46 1105.49 1130.11 1125.39 1118.17Z"/><path fill="#130F10" transform="scale(0.5 0.5)" d="M700.541 886.116C701.731 881.673 704.281 872.369 707.131 869.026C728.423 844.049 758.09 821.986 782.625 799.801C792.547 790.829 811.063 774.502 823.401 771.789C826.123 771.191 832.226 771.688 835.174 771.919C835.788 775.608 828.997 791.463 830.26 798.344C831.132 803.086 829.951 809.637 827.966 814.045C804.517 830.722 780.635 856.66 757.952 872.378C733.5 869.755 721.793 875.364 700.541 886.116Z"/><path fill="#130F10" transform="scale(0.5 0.5)" d="M889.852 841.465L956.706 841.327C1011.72 841.445 1001.48 843.357 1036.71 878.688C1020.84 878.562 1004.99 877.424 989.258 875.282C986.985 875.341 987.131 875.268 985.233 876.505C986.359 880.915 992.958 889.569 995.864 893.705C986.904 890.39 966.014 883.86 959.201 877.594C956.973 875.544 927.073 874.883 920.193 873.88C907.673 872.068 895.424 868.719 883.723 863.909C875.729 860.676 862.35 855.626 867.599 844.84C873.818 840.369 881.866 841.512 889.852 841.465Z"/><path fill="#130F10" transform="scale(0.5 0.5)" d="M1056.1 772.133C1060.65 772.754 1070.36 773.975 1074.16 777.04C1104.04 801.132 1131.4 833.032 1158.49 860.62C1162.19 864.386 1165.33 874.125 1166.96 878.87C1151.98 875.894 1145.39 875.151 1130.86 882.294C1121.83 876.513 1116.54 869.228 1109.26 864.023C1104.23 858.33 1063.78 817.682 1059.78 814.957C1059.58 814.538 1057.72 810.575 1057.72 810.575C1061.09 796.372 1059.66 786.052 1056.1 772.133Z"/><path fill="#130F10" transform="scale(0.5 0.5)" d="M851.51 866.907C868.084 868.77 885.187 879.688 903.86 878.946C908.769 878.751 923.873 878.774 926.085 881.712C923.158 898.419 876.536 900.52 863.751 902.102L854.346 910.609C849.091 914.827 843.709 918.772 838.121 922.53C821.789 933.512 807.19 947.669 791.013 958.754C763.343 943.145 807.865 904.53 820.561 893.873C831.001 885.11 840.232 874.785 851.51 866.907Z"/><path fill="#130F10" transform="scale(0.5 0.5)" d="M900.493 1132.13L901.059 1131.09C901.853 1130.73 993.675 1131.65 1003.25 1131.18C1011.81 1133.37 1027.82 1135.61 1032.77 1143.38C1034.4 1145.96 1035.07 1151.94 1034.13 1154.85C1032.7 1159.26 1028.83 1161.78 1024.78 1163.53C1010.27 1169.76 939.506 1167.95 919.456 1167.34C912.539 1155.58 907.867 1143.72 900.493 1132.13Z"/><path fill="#130F10" transform="scale(0.5 0.5)" d="M818.506 1094.25C817.893 1090.04 816.704 1087.65 818.524 1084.71C826.872 1081.45 846.45 1088.89 854.968 1092.29C860.086 1094.34 862.812 1097.21 866.778 1100.98C872.029 1107.11 874.181 1106.65 879.107 1111.18C881.374 1120.29 907.315 1160.53 907.409 1169.24L905.514 1170.6C888.649 1172.02 872.764 1158 861.447 1146.97C844.771 1130.73 827.778 1115.94 818.506 1094.25Z"/><path fill="#130F10" transform="scale(0.5 0.5)" d="M840.246 810.399C837.964 808.817 833.505 806.411 833.072 804.346C831.29 795.853 834.105 781.412 838.287 774.096C841.095 773.116 844.136 774.048 847.332 774.543C866.908 781.682 909.489 799.906 919.663 819.46C921.042 822.111 920.875 825.835 920.54 828.776C915.126 830.381 907.625 829.629 902.39 830.256C875.406 833.488 863.896 821.936 840.246 810.399Z"/><path fill="#130F10" transform="scale(0.5 0.5)" d="M709.089 1100.26C714.568 1085.92 719.185 1072.99 721.929 1057.77C723.122 1051.14 721.627 1032.03 723.69 1027.5C731.075 1024.89 747.301 1038.33 748.975 1045.46C753.282 1063.8 752.293 1081.87 746.497 1099.77C741.344 1108.69 736.934 1109.69 726.62 1111.64C721.392 1112.63 714.93 1111.6 710.639 1108.35C708.348 1106.62 709.088 1102.95 709.089 1100.26Z"/><path fill="#130F10" transform="scale(0.5 0.5)" d="M990.956 1208.4C983.357 1204.25 956.961 1189.08 965.396 1178.42C975.635 1173.62 1011.66 1178 1022.91 1180.46C1028.76 1184.79 1033.31 1186.53 1039.18 1190.09C1055.99 1247.8 1009.87 1209.06 990.956 1208.4Z"/><path fill="#130F10" transform="scale(0.5 0.5)" d="M1132.24 884.364C1140.26 880.721 1157.21 876.227 1164.74 882.273C1165.79 884.921 1164.26 889.227 1163.53 892.273C1158.57 903.797 1154.18 913.724 1150.88 925.984C1148.89 933.38 1148.71 953.021 1145.47 957.915C1132.59 960.494 1125.47 944.457 1123.64 934.247C1125.85 915.452 1117.82 903.339 1132.24 884.364Z"/><path fill="#130F10" transform="scale(0.5 0.5)" d="M973.183 794.51C1006.63 794.25 1014.68 788.421 1045.74 775.922C1048.97 774.62 1052.25 772.605 1054.41 775.528C1059 781.775 1057.89 797.213 1056.28 804.108C1055.98 805.338 1055.66 806.559 1055.29 807.77C1051.83 808.771 1040.35 811.673 1038.3 813.559C1036.25 814.002 1034.2 814.413 1032.14 814.791C1010.89 818.668 999.167 818.335 981.123 805.814L973.183 794.51Z"/><path fill="#130F10" transform="scale(0.5 0.5)" d="M834.869 1160.89C851.586 1159.82 883.079 1201.47 894.493 1214.83L881.218 1215.04C864.043 1214.63 853.91 1213.93 837.311 1211.17C836.62 1186.4 836.904 1188.55 821.683 1169.6C823.88 1164.43 829.573 1163.03 834.869 1160.89Z"/><path fill="#130F10" transform="scale(0.5 0.5)" d="M751.826 881.563C757.297 886.323 758.805 890.627 758.226 898.15C757.056 913.338 745.821 957.953 727.417 960.31C717.176 955.754 722.863 915.294 726.2 905.02C732.13 891.861 736.823 883.903 751.826 881.563Z"/><path fill="#130F10" transform="scale(0.5 0.5)" d="M1138.21 1107.61C1108.84 1118.83 1115.15 1082.76 1121.67 1067.2C1127.97 1052.17 1130.67 1034.64 1148.71 1028.91C1148.77 1044.37 1149.58 1079.26 1147.33 1092.86C1144.8 1100.08 1144.18 1102.65 1138.21 1107.61Z"/><path fill="#747373" fill-opacity="0.06666667" transform="scale(0.5 0.5)" d="M1021.09 1077.25C1023.5 1075.54 1024.53 1072.45 1024.74 1069.45C1025.59 1057.6 1033.41 1044.85 1038.95 1034.58C1041.89 1029.13 1045.02 1019.71 1051.39 1019.51L1053.27 1021.45C1053.8 1016.56 1054.51 985.917 1052.95 981.959C1048.81 971.473 1040.67 952.947 1051.31 942.625C1043.81 964.83 1051.04 967.286 1056.14 985.296C1055.05 999.645 1055.73 1020.66 1055.51 1035.87C1052.73 1041.3 1053.36 1049.52 1056.9 1054.45L1056.51 1056.01C1050 1066.04 1047.21 1071.42 1038.96 1080.12C1038.94 1092.12 1038.51 1103.19 1037.95 1115.16C1034.88 1117.13 1031.13 1120.55 1028.57 1121.67C1028.43 1116.7 1028.46 1113.97 1028.92 1109.03C1030.01 1102.06 1031.94 1095.62 1029.33 1089.32C1025.92 1086.57 1026.29 1087.47 1020.94 1087.05L1019.82 1085.32C1019.98 1082.05 1019.85 1080.32 1021.09 1077.25Z"/><path fill="#130F10" transform="scale(0.5 0.5)" d="M1048.69 1022.46L1049.99 1023.2C1053.78 1028.16 1050.45 1052.51 1049.65 1059.34C1042.45 1064.84 1035.92 1070.88 1028.73 1076.32C1020 1064.62 1042.1 1032.02 1048.69 1022.46Z"/><path fill="#130F10" transform="scale(0.5 0.5)" d="M987.317 1087.62C1005.61 1091.76 1011.19 1094.88 1028.7 1087.88L1028.92 1109.03C1028.46 1113.97 1028.43 1116.7 1028.57 1121.67C1028.56 1124.53 1028.94 1125.79 1027.34 1128.08C1022.03 1129.04 996.685 1120.43 990.299 1118.47C969.398 1112.02 956.59 1093.4 987.317 1087.62Z"/><path fill="#130F10" transform="scale(0.5 0.5)" d="M1006.99 885.295C1030.15 887.298 1042.08 885.789 1059.19 901.804C1054.58 910.036 1050.16 920.157 1046.95 929.023L1042.12 941.562C1027.24 931.714 1014.15 914.862 1008.66 897.91C1007.14 893.221 1005.06 889.265 1006.99 885.295Z"/><path fill="white" fill-opacity="0.0078431377" transform="scale(0.5 0.5)" d="M846.837 767.227C861.48 771.302 878.718 778.631 890.974 782.228C904.034 786.061 941.974 785.307 956.562 785.066C947.221 793.192 931.245 786.835 921.811 789.945L922.276 791.128C924.806 790.92 927.099 790.679 929.647 790.734C925.066 794.56 920.329 792.1 919.509 795.559C922.373 796.844 924.475 796.701 927.6 796.868L926.815 797.692C921.748 797.584 922.118 796.709 919.272 799.171C913.812 811.074 929.37 816.741 925.514 827.31C923.436 829.244 923.634 827.422 920.54 828.776C920.875 825.835 921.042 822.111 919.663 819.46C909.489 799.906 866.908 781.682 847.332 774.543C843.717 772.37 842.69 772.302 838.501 771.244C841.307 770.534 843.149 771.022 846.27 770.083L846.837 767.227Z"/><path fill="#747373" fill-opacity="0.627451" transform="scale(0.5 0.5)" d="M981.123 805.814C977.356 803.414 972.817 799.639 971.222 795.383L971.955 794.02C981.105 791.83 990.992 792.83 1000.13 790.658C1017.96 786.421 1034.25 777.426 1051.61 772.099C1059.51 770.205 1067.72 770.421 1074.38 775.266C1098.29 792.638 1117.76 816.525 1138.68 837.433C1152.55 851.286 1176.43 870.846 1163.53 892.273C1164.26 889.227 1165.79 884.921 1164.74 882.273C1157.21 876.227 1140.26 880.721 1132.24 884.364C1117.82 903.339 1125.85 915.452 1123.64 934.247C1123.23 933.351 1122.53 931.778 1122.47 930.797C1121.29 912.859 1119.68 898.75 1130.19 883.633C1123.59 879.536 1113.27 870.586 1109.26 864.023C1116.54 869.228 1121.83 876.513 1130.86 882.294C1145.39 875.151 1151.98 875.894 1166.96 878.87C1165.33 874.125 1162.19 864.386 1158.49 860.62C1131.4 833.032 1104.04 801.132 1074.16 777.04C1070.36 773.975 1060.65 772.754 1056.1 772.133C1059.66 786.052 1061.09 796.372 1057.72 810.575C1057.72 810.575 1059.58 814.538 1059.78 814.957C1048.55 805.133 1050.76 814.423 1038.3 813.559C1040.35 811.673 1051.83 808.771 1055.29 807.77C1055.66 806.559 1055.98 805.338 1056.28 804.108C1057.89 797.213 1059 781.775 1054.41 775.528C1052.25 772.605 1048.97 774.62 1045.74 775.922C1014.68 788.421 1006.63 794.25 973.183 794.51L981.123 805.814Z"/><path fill="#AEAEAE" fill-opacity="0.05882353" transform="scale(0.5 0.5)" d="M854.346 910.609C857.924 916.931 857.519 916.874 855.576 924.428C852.908 934.803 843.985 955.572 835.177 961.89C846.351 944.102 850.629 936.207 856.346 915.511C848.174 921.254 838.797 932.978 830.929 939.996C820.665 949.152 810.246 956.623 799.056 964.46C796.717 959.534 795.592 959.829 791.013 958.754C807.19 947.669 821.789 933.512 838.121 922.53C843.709 918.772 849.091 914.827 854.346 910.609Z"/><path fill="#130F10" transform="scale(0.5 0.5)" d="M879.107 1111.18L880.545 1108.66C889.104 1106.52 914.037 1121.85 922.07 1126.4C921.772 1127.57 922.024 1126.83 921.006 1128.48C911.929 1130.21 903.436 1127.36 895.655 1122.83C894.551 1122.36 880.651 1112.29 879.107 1111.18Z"/><path fill="#130F10" transform="scale(0.5 0.5)" d="M992.071 1084.73C997.866 1081 1013.16 1069.75 1018.92 1070.47L1018.67 1089.98C1009.94 1089.52 1001.53 1089.43 993.335 1086.19L992.071 1084.73Z"/><path fill="white" fill-opacity="0.30980393" transform="scale(0.5 0.5)" d="M1153.15 1088.94C1163.37 1059.46 1153.22 997.22 1158.05 966.461C1158.58 988.888 1159.38 1011.61 1159.42 1034.02C1159.46 1061.67 1161.89 1084.76 1143.8 1107.35C1148.82 1106.69 1153.35 1106.15 1158.32 1105.08L1158 1106.36C1151.25 1109.01 1145.38 1108.5 1138.21 1107.61C1144.18 1102.65 1144.8 1100.08 1147.33 1092.86C1147.77 1094.98 1147.71 1094.62 1148.57 1096.61C1151.02 1095.31 1151.78 1092.02 1153.15 1088.94Z"/><path fill="#4C4949" fill-opacity="0.7019608" transform="scale(0.5 0.5)" d="M1051.31 942.625C1053.34 939.037 1052.67 935.22 1055.59 932.882C1054.63 948.858 1056.29 968.407 1056.14 985.296C1051.04 967.286 1043.81 964.83 1051.31 942.625Z"/><path fill="#4C4949" fill-opacity="0.66666669" transform="scale(0.5 0.5)" d="M1022.91 1180.46C1029.3 1182.13 1034.9 1184.85 1040.41 1188.49C1044.01 1185.29 1046.84 1182.39 1051.08 1180.14C1048.17 1183.6 1046.01 1186.12 1042.8 1189.29C1043.51 1194.42 1043.78 1197.44 1044.06 1202.47C1044.39 1208.47 1041.58 1219.97 1042.97 1224.29C1033.21 1224.65 996.532 1215.26 990.956 1208.4C1009.87 1209.06 1055.99 1247.8 1039.18 1190.09C1033.31 1186.53 1028.76 1184.79 1022.91 1180.46Z"/><path fill="#4C4949" fill-opacity="0.82352942" transform="scale(0.5 0.5)" d="M895.655 1122.83C903.436 1127.36 911.929 1130.21 921.006 1128.48C922.024 1126.83 921.772 1127.57 922.07 1126.4C935.065 1135.21 984.979 1124.75 1003.25 1131.18C993.675 1131.65 901.853 1130.73 901.059 1131.09L900.493 1132.13C898.283 1130.35 896.83 1125.71 895.655 1122.83Z"/><path fill="white" fill-opacity="0.062745102" transform="scale(0.5 0.5)" d="M1148.71 1028.91C1151.33 1031.2 1151.1 1032.19 1151.36 1035.67C1152.07 1044.98 1148.51 1083.71 1152.61 1088.49C1152.76 1088.67 1152.97 1088.79 1153.15 1088.94C1151.78 1092.02 1151.02 1095.31 1148.57 1096.61C1147.71 1094.62 1147.77 1094.98 1147.33 1092.86C1149.58 1079.26 1148.77 1044.37 1148.71 1028.91Z"/><path fill="white" fill-opacity="0.12941177" transform="scale(0.5 0.5)" d="M727.104 884.85C728.55 883.441 728.195 883.994 730.628 883.335C733.43 885.178 732.171 884.055 733.522 888.249C739.555 883.071 743.202 878.17 751.826 881.563C736.823 883.903 732.13 891.861 726.2 905.02C721.888 907.087 721.746 904.878 718.077 907.013C720.725 900.608 731.104 890.822 730.589 885.852L727.104 884.85Z"/><path fill="#747373" fill-opacity="0.63921571" transform="scale(0.5 0.5)" d="M1018.92 1070.47C1020.84 1072.61 1020.71 1074.37 1021.09 1077.25C1019.85 1080.32 1019.98 1082.05 1019.82 1085.32L1020.94 1087.05C1026.29 1087.47 1025.92 1086.57 1029.33 1089.32C1031.94 1095.62 1030.01 1102.06 1028.92 1109.03L1028.7 1087.88C1011.19 1094.88 1005.61 1091.76 987.317 1087.62C989.157 1086.35 990.129 1085.82 992.071 1084.73L993.335 1086.19C1001.53 1089.43 1009.94 1089.52 1018.67 1089.98L1018.92 1070.47Z"/><path fill="#747373" fill-opacity="0.74509805" transform="scale(0.5 0.5)" d="M853.624 1076.71C855.498 1082 856.623 1085.55 858.068 1091C862.651 1095.04 863.653 1095.8 866.778 1100.98C862.812 1097.21 860.086 1094.34 854.968 1092.29C846.45 1088.89 826.872 1081.45 818.524 1084.71C816.704 1087.65 817.893 1090.04 818.506 1094.25C818.172 1093.56 817.851 1092.88 817.545 1092.18C815.355 1087.14 815.984 1085.55 817.889 1080.65C831.767 1083.95 840.992 1085.28 856.103 1089.53C854.567 1084.36 853.747 1082.23 853.624 1076.71Z"/><path fill="#4C4949" fill-opacity="0.67843139" transform="scale(0.5 0.5)" d="M835.174 771.919L838.501 771.244C842.69 772.302 843.717 772.37 847.332 774.543C844.136 774.048 841.095 773.116 838.287 774.096C834.105 781.412 831.29 795.853 833.072 804.346C833.505 806.411 837.964 808.817 840.246 810.399C829.18 807.611 835.136 809.345 827.966 814.045C829.951 809.637 831.132 803.086 830.26 798.344C828.997 791.463 835.788 775.608 835.174 771.919Z"/><path fill="#747373" fill-opacity="0.88627452" transform="scale(0.5 0.5)" d="M709.089 1100.26C709.088 1102.95 708.348 1106.62 710.639 1108.35C714.93 1111.6 721.392 1112.63 726.62 1111.64C736.934 1109.69 741.344 1108.69 746.497 1099.77L744.567 1107.47C730.044 1114.47 723.04 1115.53 707.511 1110.54C707.154 1105.56 707.487 1105.14 709.089 1100.26Z"/><path fill="#4C4949" fill-opacity="0.73333335" transform="scale(0.5 0.5)" d="M1056.51 1056.01L1056.9 1054.45C1053.36 1049.52 1052.73 1041.3 1055.51 1035.87L1055.62 1052.82C1060.08 1049.6 1062.24 1047.68 1067.62 1046.09L1068.7 1046.55C1067.82 1047.84 1057.73 1055.39 1056.51 1056.01Z"/></svg>